/* XPM */
static char * close_prelight_xpm[] = {
"17 15 117 2",
"  	c None",
". 	c #F0F0EF",
"+ 	c #F0F0F0",
"@ 	c #EFEEEE",
"# 	c #EDE4E4",
"$ 	c #EDDDDD",
"% 	c #EDDADB",
"& 	c #EFF0F0",
"* 	c #EDE5E5",
"= 	c #E9BEBE",
"- 	c #E67E80",
"; 	c #E52736",
"> 	c #E60000",
", 	c #E62937",
"' 	c #E57F81",
") 	c #E8BEBF",
"! 	c #EDE6E5",
"~ 	c #F0F1F0",
"{ 	c #EDE3E3",
"] 	c #E6A0A1",
"^ 	c #EA2836",
"/ 	c #F2343E",
"( 	c #F44F56",
"_ 	c #F45359",
": 	c #F44F55",
"< 	c #F3333D",
"[ 	c #E92B38",
"} 	c #E6A1A3",
"| 	c #EDE4E3",
"1 	c #EFECEB",
"2 	c #E8B4B6",
"3 	c #EA2C38",
"4 	c #E74048",
"5 	c #E14950",
"6 	c #F14F56",
"7 	c #F45157",
"8 	c #E1494F",
"9 	c #E83F48",
"0 	c #EB2F3C",
"a 	c #E8B6B6",
"b 	c #EFECEC",
"c 	c #ECDCDC",
"d 	c #E77579",
"e 	c #F23740",
"f 	c #DE474E",
"g 	c #BA2E39",
"h 	c #D9424A",
"i 	c #D84149",
"j 	c #BA2F39",
"k 	c #DF474E",
"l 	c #F2343F",
"m 	c #E8787B",
"n 	c #ECDDDD",
"o 	c #EFF0EF",
"p 	c #EACFD0",
"q 	c #E82533",
"r 	c #F45056",
"s 	c #F04F55",
"t 	c #D64048",
"u 	c #BC313B",
"v 	c #C63640",
"w 	c #BC313A",
"x 	c #D74149",
"y 	c #E8313B",
"z 	c #EBD0D0",
"A 	c #F0EFEF",
"B 	c #EBCCCC",
"C 	c #E80000",
"D 	c #C4353F",
"E 	c #931022",
"F 	c #C6363F",
"G 	c #F15056",
"H 	c #EACBCD",
"I 	c #EBCFD0",
"J 	c #E82834",
"K 	c #C73740",
"L 	c #BC303B",
"M 	c #E8323D",
"N 	c #EFEFF0",
"O 	c #ECDBDC",
"P 	c #E87579",
"Q 	c #BB2F39",
"R 	c #DA434A",
"S 	c #F25056",
"T 	c #F2353E",
"U 	c #E7797C",
"V 	c #EBDCDD",
"W 	c #EFEFEF",
"X 	c #EEECEC",
"Y 	c #E8B5B6",
"Z 	c #EA2C3A",
"` 	c #E84048",
" .	c #E24950",
"..	c #F35157",
"+.	c #E83E47",
"@.	c #EA2F3C",
"#.	c #E7B7B8",
"$.	c #EEECEB",
"%.	c #ECE3E3",
"&.	c #E92A38",
"*.	c #F2323D",
"=.	c #F2313C",
"-.	c #E92D3A",
";.	c #E5A2A5",
">.	c #ECE3E4",
",.	c #EFF1F0",
"'.	c #ECE5E5",
").	c #E8BFC0",
"!.	c #E68082",
"~.	c #E5323B",
"{.	c #E6323D",
"].	c #E58184",
"^.	c #E8C0C0",
"/.	c #EFEDED",
"(.	c #EEE3E3",
"_.	c #EDDCDC",
":.	c #EDDADA",
". + . + + . + . . . . + + . + . + ",
"+ + + + + @ # $ % $ # @ + + + + + ",
"+ & + + * = - ; > , ' ) ! ~ & + & ",
". . . { ] ^ / ( _ : < [ } | + . . ",
". & 1 2 3 4 5 6 7 6 8 9 0 a b . & ",
". & c d e f g h 6 i j k l m n o & ",
"& o p q r s t u v w x s : y z & A ",
"+ & B C _ 7 6 D E F G 7 _ C H + & ",
"+ & I J ( s t w K L t s : M p + o ",
"N N O P e f Q R S h Q k T U V & N ",
"o W X Y Z `  .S ..G  .+.@.#.$.o W ",
"W & & %.} &.*.: _ : =.-.;.>.& W & ",
"W o W ,.'.).!.~.> {.].^.'.& o W o ",
"A A A A A /.(._.:._.{ /.A A A A A ",
"W N W N W W N W W W W N W W N W N "};
