/* XPM */
static char * close_active_xpm[] = {
"17 15 90 1",
" 	c None",
".	c #F0F0EF",
"+	c #F0F0F0",
"@	c #EFEEEE",
"#	c #EEE4E4",
"$	c #EDDDDD",
"%	c #EDDBDC",
"&	c #EEE4E5",
"*	c #EFF0F0",
"=	c #F0F1F0",
"-	c #EDE6E6",
";	c #E9C0C1",
">	c #E68285",
",	c #E63842",
"'	c #E60000",
")	c #E53944",
"!	c #E68486",
"~	c #E8C2C2",
"{	c #EDE6E7",
"]	c #E7A4A5",
"^	c #E9323C",
"/	c #F2343D",
"(	c #F44F56",
"_	c #F45459",
":	c #F44F55",
"<	c #F2323D",
"[	c #E9343F",
"}	c #E6A5A6",
"|	c #EDE5E4",
"1	c #EFECEC",
"2	c #E8B7B9",
"3	c #EA333D",
"4	c #F34850",
"5	c #F3545A",
"6	c #F25157",
"7	c #F3474E",
"8	c #E93440",
"9	c #E7B9B9",
"0	c #EEECEC",
"a	c #ECDDDD",
"b	c #E7797C",
"c	c #F23640",
"d	c #F35459",
"e	c #F23540",
"f	c #E77B7E",
"g	c #ECDDDE",
"h	c #EFF0EF",
"i	c #EAD0D1",
"j	c #E8323D",
"k	c #F45056",
"l	c #E83A45",
"m	c #EBD0D1",
"n	c #F0EFEF",
"o	c #EBCCCD",
"p	c #E80002",
"q	c #F45358",
"r	c #E80018",
"s	c #EACDCD",
"t	c #E7323D",
"u	c #E83A44",
"v	c #EFEFF0",
"w	c #ECDCDD",
"x	c #F23740",
"y	c #F2353F",
"z	c #E77B7F",
"A	c #EBDDDE",
"B	c #EFEFEF",
"C	c #E8B7B8",
"D	c #EA333F",
"E	c #F3484F",
"F	c #F4474E",
"G	c #E93441",
"H	c #E7B9BA",
"I	c #EDE5E5",
"J	c #E6A4A6",
"K	c #E9343D",
"L	c #F2333E",
"M	c #E6A5A8",
"N	c #ECE4E5",
"O	c #ECE6E5",
"P	c #E8BFC0",
"Q	c #E68284",
"R	c #E53943",
"S	c #E68385",
"T	c #E8C1C1",
"U	c #ECE7E6",
"V	c #EFEDED",
"W	c #EEE3E3",
"X	c #EDDCDC",
"Y	c #EDDADB",
".+.++.+....++.+.+",
"+++++@#$%$&@+++++",
"+*+=-;>,')!~{=*+*",
"...#]^/(_:<[}|+..",
".*1234566657890.*",
".*abcd66666defgh*",
"*hijk6666666:lm*n",
"+*op_6666666qrs+*",
"+*mtk6666666:ui+h",
"vvwbxd66666dyzA*v",
"hB0CDE56665FGH0hB",
"B**IJKL:_:<[MN*B*",
"BhB*OPQ,'RSTU*hBh",
"nnnnnVWXYXWVnnnnn",
"BvBvBBvBBBBvBBvBv"};
