/* XPM */
static char * close_pressed_xpm[] = {
"17 15 104 2",
"  	c None",
". 	c #F0F0EF",
"+ 	c #F0F0F0",
"@ 	c #EFEEEE",
"# 	c #EDE4E4",
"$ 	c #EBDDDD",
"% 	c #EBDADB",
"& 	c #EDE4E5",
"* 	c #EFF0F0",
"= 	c #F0F1F0",
"- 	c #EDE6E6",
"; 	c #E6BFC0",
"> 	c #DC7D80",
", 	c #D51A2C",
"' 	c #D30000",
") 	c #D51E2F",
"! 	c #DC7F81",
"~ 	c #E5C1C1",
"{ 	c #EEE7E7",
"] 	c #E0A2A3",
"^ 	c #D40010",
"/ 	c #D50000",
"( 	c #D61D30",
"_ 	c #D62A37",
": 	c #D61D2F",
"< 	c #D40000",
"[ 	c #D5001C",
"} 	c #E1A4A5",
"| 	c #EDE5E4",
"1 	c #EFECEC",
"2 	c #E3B6B7",
"3 	c #D40015",
"4 	c #CE0523",
"5 	c #CA2C39",
"6 	c #D62B38",
"7 	c #D72A38",
"8 	c #D52A38",
"9 	c #CA2C38",
"0 	c #CE0122",
"a 	c #D5001B",
"b 	c #E4B8B8",
"c 	c #DA7275",
"d 	c #C82B39",
"e 	c #B12431",
"f 	c #C52835",
"g 	c #D62A38",
"h 	c #C52734",
"i 	c #C92C38",
"j 	c #DC7578",
"k 	c #ECDDDE",
"l 	c #EFF0EF",
"m 	c #E9CFD0",
"n 	c #D5001A",
"o 	c #D62132",
"p 	c #C32734",
"q 	c #B22531",
"r 	c #B92633",
"s 	c #C42835",
"t 	c #D52B37",
"u 	c #D61E30",
"v 	c #D5162A",
"w 	c #E9D0D0",
"x 	c #F0EFEF",
"y 	c #E9CBCB",
"z 	c #D62B39",
"A 	c #B82532",
"B 	c #98202C",
"C 	c #B92532",
"D 	c #E7CCCC",
"E 	c #B22532",
"F 	c #B92632",
"G 	c #D52B38",
"H 	c #D51428",
"I 	c #E8D0D1",
"J 	c #EFEFF0",
"K 	c #EADCDD",
"L 	c #DA7175",
"M 	c #DA7479",
"N 	c #EBDDDE",
"O 	c #EFEFEF",
"P 	c #EEECEC",
"Q 	c #D4001A",
"R 	c #CD0522",
"S 	c #D72A37",
"T 	c #D52A37",
"U 	c #CE0221",
"V 	c #D4001C",
"W 	c #E3B8B9",
"X 	c #E0A1A3",
"Y 	c #D40018",
"Z 	c #D5011F",
"` 	c #E0A2A6",
" .	c #EDE6E5",
"..	c #E5BFBF",
"+.	c #DB7D80",
"@.	c #D5152A",
"#.	c #D51B2D",
"$.	c #DC7E81",
"%.	c #EDE7E6",
"&.	c #EFEDED",
"*.	c #EDE3E3",
"=.	c #EBDCDC",
"-.	c #EBD9D9",
";.	c #EDE3E4",
". + . + + . + . . . . + + . + . + ",
"+ + + + + @ # $ % $ & @ + + + + + ",
"+ * + = - ; > , ' ) ! ~ { = * + * ",
". . . & ] ^ / ( _ : < [ } | + . . ",
". * 1 2 3 4 5 6 7 8 9 0 a b 1 . * ",
". * $ c / d e f g h e i < j k . * ",
"* l m n o 8 p q r q s t u v w * x ",
"+ * y ' z 7 _ A B C g 7 g ' D + * ",
"+ * m a o 8 p E F q s G u H I + l ",
"J J K L / d e f g h e i / M N * J ",
"l O P 2 Q R 9 6 S T 5 U V W P l O ",
"O * * & X Y / u g ( / Z ` & * O * ",
"O l O *  ...+.@.' #.$.~ %.* l O l ",
"x x x x x &.*.=.-.=.;.&.x x x x x ",
"O J O J O O J O O O O J O O J O J "};
