/* XPM */
static char * hide_prelight_xpm[] = {
"17 15 89 1",
" 	c None",
".	c #F0F0EF",
"+	c #F0F0F0",
"@	c #EFEEEE",
"#	c #EEE9E3",
"$	c #EEE5DB",
"%	c #EEE4D9",
"&	c #EEE8E3",
"*	c #EFF0F0",
"=	c #F0F1F0",
"-	c #EEE9E4",
";	c #EBD6BC",
">	c #EAC077",
",	c #ECB200",
"'	c #EDAE00",
")	c #EABF77",
"!	c #EAD6BC",
"~	c #EDEAE4",
"{	c #EDE9E3",
"]	c #EACA9C",
"^	c #F1B700",
"/	c #FAC200",
"(	c #FCC732",
"_	c #FCC739",
":	c #FBC200",
"<	c #F2B700",
"[	c #EACA9D",
"}	c #EFEEEB",
"|	c #EBD2B3",
"1	c #F2B800",
"2	c #FBC526",
"3	c #FBC63A",
"4	c #FAC536",
"5	c #FBC525",
"6	c #EFEEEC",
"7	c #EDE5DB",
"8	c #EDBF6D",
"9	c #FCC300",
"0	c #FEC93B",
"a	c #FDC837",
"b	c #EDBF6E",
"c	c #ECE4DC",
"d	c #EFF0EF",
"e	c #ECDFCE",
"f	c #EFB400",
"g	c #F5BF30",
"h	c #E8B230",
"i	c #E7B130",
"j	c #EFB500",
"k	c #EDDECE",
"l	c #F0EFEF",
"m	c #EDDECA",
"n	c #EFB100",
"o	c #E5AF32",
"p	c #BE8222",
"q	c #B97C20",
"r	c #BB7E20",
"s	c #EDDDCA",
"t	c #EFEFF0",
"u	c #EDDECF",
"v	c #F5C030",
"w	c #E9B331",
"x	c #E8B130",
"y	c #F5BF2F",
"z	c #ECDECE",
"A	c #ECBF6F",
"B	c #EDC06F",
"C	c #EFEFEF",
"D	c #EEEDEC",
"E	c #FBC524",
"F	c #EBD2B4",
"G	c #EEEDEB",
"H	c #EAC99E",
"I	c #FCC731",
"J	c #E9CAA0",
"K	c #EDE8E3",
"L	c #EDE9E5",
"M	c #EBD7BD",
"N	c #EBC079",
"O	c #ECB30C",
"P	c #EDAF00",
"Q	c #ECB30B",
"R	c #EAC07A",
"S	c #EAD7BD",
"T	c #EDEAE5",
"U	c #EFEDED",
"V	c #EEE4DC",
"W	c #EEE3D9",
"X	c #EFEEED",
".+.++.+....++.+.+",
"+++++@#$%$&@+++++",
"+*+=-;>,',)!~=*+*",
"...{]^/(_(:<[{+..",
".*}|123444351|6.*",
".*7890aaaaa09bcd*",
"*defghiiiiihgjk*l",
"+*mnopqrrrqpons=*",
"+tufvwxhhhxwyjz+d",
"ttcA90aaaaa09Bctt",
"dCD|1E34443E1FGdC",
"C*t{H<:I_I/^JK*C*",
"CdC*LMNOPQRSTtdCd",
"lllllU&VWV&Xlllll",
"CtCtCCtCCCCtCCtCt"};
