/* XPM */
static char * hide_active_xpm[] = {
"17 15 78 1",
" 	c None",
".	c #F0F0EF",
"+	c #F0F0F0",
"@	c #EFEEEE",
"#	c #EEE9E4",
"$	c #EEE5DD",
"%	c #EEE4DA",
"&	c #EEE6DD",
"*	c #EFF0F0",
"=	c #EEEAE6",
"-	c #EBD7BF",
";	c #EAC27E",
">	c #ECB418",
",	c #EDB000",
"'	c #ECB41B",
")	c #EBC17E",
"!	c #EBD7C0",
"~	c #EDE9E4",
"{	c #EBCBA1",
"]	c #F1B800",
"^	c #FAC200",
"/	c #FCC832",
"(	c #FCC83A",
"_	c #EBCCA1",
":	c #EDE9E3",
"<	c #EFEEEC",
"[	c #EBD3B6",
"}	c #F2B900",
"|	c #FCC626",
"1	c #FBC73C",
"2	c #FAC638",
"3	c #EBD4B5",
"4	c #EDE5DC",
"5	c #EDC072",
"6	c #FBC200",
"7	c #EDC173",
"8	c #ECE5DD",
"9	c #EFF0EF",
"0	c #ECDFCF",
"a	c #EFB60A",
"b	c #FCC834",
"c	c #FCC833",
"d	c #EEB712",
"e	c #EDDECF",
"f	c #F0EFEF",
"g	c #EDDECB",
"h	c #EFB300",
"i	c #FCC83B",
"j	c #F0B400",
"k	c #EDDDCB",
"l	c #F0F1F0",
"m	c #EFEFF0",
"n	c #EDDFCF",
"o	c #EEB711",
"p	c #ECDECF",
"q	c #ECE4DC",
"r	c #EDC172",
"s	c #FBC300",
"t	c #ECC173",
"u	c #ECE4DD",
"v	c #EFEFEF",
"w	c #EEEDEC",
"x	c #F2B800",
"y	c #FCC625",
"z	c #EAD4B7",
"A	c #EACBA1",
"B	c #EACBA2",
"C	c #ECE8E5",
"D	c #EDEAE5",
"E	c #EAD7BD",
"F	c #EAC17C",
"G	c #ECB41C",
"H	c #EBC17D",
"I	c #EFEDED",
"J	c #EEE8E3",
"K	c #EEE5DC",
"L	c #EEE4D9",
"M	c #EFEEED",
".+.++.+....++.+.+",
"+++++@#$%&#@+++++",
"+*++=-;>,')!=+*+*",
"...~{]^/(/^]_:+..",
".*<[}|12221|}3<.*",
".*4561222221^789*",
"*90ab2222222cde*f",
"+*ghi2222222(jkl*",
"+mnab2222222cop+9",
"mmqrs1222221^tumm",
"9vw[x|12221y]zw9v",
"v*m~A]^c(/^]BC*v*",
"v9v*DEF>,GH-Dm9v9",
"fffffIJKLKJMfffff",
"vmvmvvmvvvvmvvmvm"};
