/* XPM */
static char * hide_pressed_xpm[] = {
"17 15 87 1",
" 	c None",
".	c #F0F0EF",
"+	c #F0F0F0",
"@	c #F0EFEE",
"#	c #F1ECE5",
"$	c #F2E9DD",
"%	c #F2E8DB",
"&	c #EFF0F0",
"*	c #F1EDE6",
"=	c #F3E0C0",
"-	c #F8D081",
";	c #FAC42E",
">	c #FBC000",
",	c #FBC42F",
"'	c #F8D082",
")	c #F3E0C1",
"!	c #F1ECE4",
"~	c #F6D8A3",
"{	c #FBC418",
"]	c #FBC300",
"^	c #FAC630",
"/	c #FAC638",
"(	c #FAC530",
"_	c #FAC300",
":	c #FAC417",
"<	c #F0EFEC",
"[	c #F4DDB8",
"}	c #FAC419",
"|	c #FAC524",
"1	c #FAC63B",
"2	c #FAC424",
"3	c #EFEFEC",
"4	c #EFEFF0",
"5	c #F8CE76",
"6	c #FCC500",
"7	c #FDC93C",
"8	c #FDC939",
"9	c #F1EADD",
"0	c #F0EFEF",
"a	c #F2E5D1",
"b	c #FAC420",
"c	c #F3BE2F",
"d	c #E9B433",
"e	c #E7B232",
"f	c #E7B332",
"g	c #F4BE2F",
"h	c #FBC425",
"i	c #F3E5CF",
"j	c #F3E4CD",
"k	c #FAC000",
"l	c #E3AE32",
"m	c #BE8426",
"n	c #B97F24",
"o	c #BA8124",
"p	c #BA8024",
"q	c #BF8426",
"r	c #E4AE31",
"s	c #F3E4CC",
"t	c #F3E5D1",
"u	c #F3BE2E",
"v	c #FAC426",
"w	c #F3E4D0",
"x	c #EFF0EF",
"y	c #F1E9DD",
"z	c #F8CD76",
"A	c #F8CD78",
"B	c #F1E8DD",
"C	c #EFEFEF",
"D	c #F0EEEC",
"E	c #FAC41B",
"F	c #F0EBE5",
"G	c #F6D7A3",
"H	c #FAC418",
"I	c #FAC41D",
"J	c #F6D7A5",
"K	c #F0ECE5",
"L	c #F4E0C0",
"M	c #F8D080",
"N	c #FAC52C",
"O	c #FBC100",
"P	c #FBC52D",
"Q	c #F7CF80",
"R	c #F0ECE6",
"S	c #F0EEED",
"T	c #F1EBE3",
"U	c #F2E8DC",
"V	c #F2E7DA",
".+.++.+....++.+.+",
"+++++@#$%$#@+++++",
"+&+&*=-;>,')*+&+&",
"...!~{]^/(_:~!+..",
".&<[}|1///12}[3.&",
".4$567888887659.&",
"&0abcdefffedghi&0",
"+4jklmnoponqr>s+&",
"+4tbcdefffeduvw+x",
"44yz678888876AB44",
"xCD[}|1///12E[DxC",
"C&4FGH_(/(_IJF&C&",
"CxC&KLMNOPQ=R4xCx",
"00000STUVUTS00000",
"C4C4CC4CCCC4CC4C4"};
