/* XPM */
static char * maximize_active_xpm[] = {
"17 15 91 1",
" 	c None",
".	c #F0F0EF",
"+	c #F0F0F0",
"@	c #EEEFEE",
"#	c #E4ECE4",
"$	c #DDEADD",
"%	c #DAEADB",
"&	c #EFF0F0",
"*	c #E6ECE6",
"=	c #C0E3C0",
"-	c #7EDC82",
";	c #1FD931",
">	c #00D800",
",	c #1BD82F",
"'	c #7DDA81",
")	c #BEE3C0",
"!	c #F1F0F0",
"~	c #E5ECE4",
"{	c #A2DEA4",
"]	c #06DD28",
"^	c #00E925",
"/	c #36ED49",
"(	c #3EED4E",
"_	c #37ED49",
":	c #00E926",
"<	c #04DD25",
"[	c #A1DEA2",
"}	c #E4EBE3",
"|	c #ECEEEC",
"1	c #B7E2B8",
"2	c #0FDE2C",
"3	c #2AEB41",
"4	c #3FEB4E",
"5	c #3BEA4B",
"6	c #2BEB41",
"7	c #02DE28",
"8	c #B6E1B6",
"9	c #ECEFEC",
"0	c #EFEFF0",
"a	c #74DC79",
"b	c #00E92A",
"c	c #00E92C",
"d	c #72DD76",
"e	c #DCE8DC",
"f	c #F0EFEF",
"g	c #CFE7D1",
"h	c #1FDB2F",
"i	c #36EC48",
"j	c #38EC49",
"k	c #05DB2A",
"l	c #CFE6CE",
"m	c #CCE7CD",
"n	c #00DB00",
"o	c #3CEC4D",
"p	c #3EEC4E",
"q	c #CAE6CB",
"r	c #D0E7D1",
"s	c #1CDB2F",
"t	c #37EC49",
"u	c #0BDB29",
"v	c #CEE6CF",
"w	c #EFF0EF",
"x	c #DDE9DE",
"y	c #3EEB4E",
"z	c #71DD77",
"A	c #DBE8DC",
"B	c #EFEFEF",
"C	c #B6E1B8",
"D	c #11DE2D",
"E	c #2AEB40",
"F	c #0ADE2B",
"G	c #B5E1B7",
"H	c #EBEEEB",
"I	c #E4EBE5",
"J	c #A3DEA5",
"K	c #07DD28",
"L	c #00DD28",
"M	c #A1DDA3",
"N	c #E3EAE4",
"O	c #E5ECE5",
"P	c #BFE3BF",
"Q	c #7EDB81",
"R	c #1DD831",
"S	c #00D900",
"T	c #1CD830",
"U	c #7CDA80",
"V	c #BEE4BF",
"W	c #F0EFF0",
"X	c #EEEEED",
"Y	c #DDE9DC",
"Z	c #DAEADA",
".+.++.+....++.+.+",
"+++++@#$%$#@+++++",
"+&++*=-;>,')*!&+&",
"...~{]^/(_:<[}+..",
".&|123455546789.&",
".0$ab4555554cde.&",
"&fghi5555555jkl+f",
"+0mno5555555pnq+&",
"+0rsi5555555tuv+w",
"00xab455555yczA00",
"wB|CDE455546FGHwB",
"B&0IJK^_(_:LMN&B&",
"BwB+OPQRSTUVOWwBw",
"fffffX}YZY}Xfffff",
"B0B0BB0BBBB0BB0B0"};
