/* XPM */
static char * maximize_prelight_xpm[] = {
"17 15 94 2",
"  	c None",
". 	c #F0F0EF",
"+ 	c #F0F0F0",
"@ 	c #F1F0F1",
"# 	c #E2EAE2",
"$ 	c #D8E8D8",
"% 	c #D4E8D5",
"& 	c #F2F1F2",
"* 	c #E9ECE9",
"= 	c #B2DFB3",
"- 	c #78DE7C",
"; 	c #3CDE48",
"> 	c #00E027",
", 	c #3ADD47",
"' 	c #77DD7B",
") 	c #E8ECE8",
"! 	c #EFF0EF",
"~ 	c #F1F1F1",
"{ 	c #E9ECE8",
"] 	c #8DD98F",
"^ 	c #31E341",
"/ 	c #31EA43",
"( 	c #35E245",
"_ 	c #2BC237",
": 	c #36E245",
"< 	c #8CD88D",
"[ 	c #E8EBE7",
"} 	c #EFF0F0",
"| 	c #F2F0F2",
"1 	c #A3DBA5",
"2 	c #38E547",
"3 	c #3BEA4B",
"4 	c #3BEB4B",
"5 	c #32D140",
"6 	c #005400",
"7 	c #37E546",
"8 	c #A1DAA2",
"9 	c #F1F1F2",
"0 	c #DAE6D9",
"a 	c #6CE072",
"b 	c #35EA47",
"c 	c #32D040",
"d 	c #004A00",
"e 	c #36EA47",
"f 	c #6AE06F",
"g 	c #D8E6D9",
"h 	c #F2F0F1",
"i 	c #C6E3C7",
"j 	c #3FE24A",
"k 	c #36E146",
"l 	c #33D341",
"m 	c #2BBD37",
"n 	c #005500",
"o 	c #39E248",
"p 	c #C5E2C5",
"q 	c #F0EFEF",
"r 	c #C0E3C1",
"s 	c #22E538",
"t 	c #28BB32",
"u 	c #004D00",
"v 	c #005600",
"w 	c #08700B",
"x 	c #29BB33",
"y 	c #1BE533",
"z 	c #BEE2BF",
"A 	c #C7E2C7",
"B 	c #3EE24A",
"C 	c #3BE247",
"D 	c #EFEFF0",
"E 	c #F0F0F1",
"F 	c #D9E5DA",
"G 	c #6CDF72",
"H 	c #6AE070",
"I 	c #D8E5D9",
"J 	c #EFEFEF",
"K 	c #F1F0F2",
"L 	c #A3DAA5",
"M 	c #39E547",
"N 	c #A2DBA3",
"O 	c #E8EBE9",
"P 	c #8DD990",
"Q 	c #8CD88E",
"R 	c #E7EAE8",
"S 	c #B2DDB2",
"T 	c #3BDD47",
"U 	c #00E028",
"V 	c #76DD7B",
"W 	c #B1DFB2",
"X 	c #F1F0F0",
"Y 	c #F1EFF0",
"Z 	c #E2E9E1",
"` 	c #D8E7D7",
" .	c #D4E7D4",
"..	c #F0EFF0",
". + . . + . + + + + . + + . + . + ",
"+ + + + @ @ # $ % $ # @ @ + + + + ",
". . . & * = - ; > , ' = ) & . . ! ",
"! + ~ { ] ^ / ( _ : / ^ < [ ~ ! + ",
". } | 1 2 3 4 5 6 5 4 3 7 8 9 . } ",
". @ 0 a b 3 4 c d c 4 3 e f g ~ } ",
"} h i j k l l m n m l l k o p & q ",
"+ | r s t u d v w v d u x y z & } ",
"+ 9 A B k l l m n m l l k C p & ! ",
"D E F G b 3 4 c d c 4 3 e H I @ D ",
"! J K L M 3 4 5 6 5 4 3 2 N @ ! J ",
"D ! E O P ^ / ( _ : / ^ Q R E D ! ",
"J ! J @ * S - T U , V W ) @ ! J } ",
"q q q q X Y Z `  .` Z Y X q q q q ",
"J D J J D J D D ..D J D D J D J D "};
