/* XPM */
static char * maximize_pressed_xpm[] = {
"17 15 105 2",
"  	c None",
". 	c #F0F0EF",
"+ 	c #F0F0F0",
"@ 	c #EEEFEE",
"# 	c #E4EBE4",
"$ 	c #DDE9DD",
"% 	c #DAE8DA",
"& 	c #EFF0F0",
"* 	c #E6EDE6",
"= 	c #BFDFC0",
"- 	c #7CCD7D",
"; 	c #0BC10F",
"> 	c #00BD00",
", 	c #00C10C",
"' 	c #7BCD7C",
") 	c #BEDFBF",
"! 	c #F1F0F0",
"~ 	c #E5ECE5",
"{ 	c #A1D6A2",
"] 	c #00C000",
"^ 	c #00BA0A",
"/ 	c #14AB1D",
"( 	c #00BA0B",
"_ 	c #A0D69F",
": 	c #E4ECE3",
"< 	c #ECEFEC",
"[ 	c #B7DCB7",
"} 	c #18C523",
"| 	c #13AA1A",
"1 	c #0A6C0A",
"2 	c #18C622",
"3 	c #00BF00",
"4 	c #B4DCB4",
"5 	c #EFEFF0",
"6 	c #71CB73",
"7 	c #00C100",
"8 	c #17C522",
"9 	c #13C91F",
"0 	c #0FAA18",
"a 	c #045A02",
"b 	c #13CA1F",
"c 	c #6FCA6F",
"d 	c #DCE8DD",
"e 	c #F0EFEF",
"f 	c #CFE4D0",
"g 	c #00B90D",
"h 	c #11AB1A",
"i 	c #0EAB18",
"j 	c #0C9613",
"k 	c #056505",
"l 	c #0FAC19",
"m 	c #12AB1A",
"n 	c #03B910",
"o 	c #CFE3CE",
"p 	c #CBE3CB",
"q 	c #13A51B",
"r 	c #096909",
"s 	c #045C02",
"t 	c #066605",
"u 	c #066E07",
"v 	c #15A51D",
"w 	c #CAE2CB",
"x 	c #D0E4D0",
"y 	c #00B90C",
"z 	c #0EAC18",
"A 	c #0B9612",
"B 	c #0FAC18",
"C 	c #03B90F",
"D 	c #CEE4CF",
"E 	c #EFF0EF",
"F 	c #71CA73",
"G 	c #0EAA17",
"H 	c #035A02",
"I 	c #0EAB17",
"J 	c #17C623",
"K 	c #6ECA70",
"L 	c #DCE8DC",
"M 	c #EFEFEF",
"N 	c #ECEEEC",
"O 	c #B6DCB7",
"P 	c #18C623",
"Q 	c #13AB1B",
"R 	c #12AB1B",
"S 	c #B4DCB6",
"T 	c #EBEEEB",
"U 	c #E4ECE5",
"V 	c #A2D6A3",
"W 	c #01BA0B",
"X 	c #15AB1D",
"Y 	c #01BA0C",
"Z 	c #9FD5A1",
"` 	c #E3EBE4",
" .	c #BDDEBF",
"..	c #7BCC7C",
"+.	c #00C10D",
"@.	c #00BC00",
"#.	c #00C00B",
"$.	c #79CD7A",
"%.	c #BDDFBE",
"&.	c #F0EFF0",
"*.	c #EEEEED",
"=.	c #E4EAE3",
"-.	c #DDE8DC",
";.	c #DAE7D9",
">.	c #E4EBE3",
". + . + + . + . . . . + + . + . + ",
"+ + + + + @ # $ % $ # @ + + + + + ",
"+ & + + * = - ; > , ' ) * ! & + & ",
". . . ~ { ] ] ^ / ( ] ] _ : + . . ",
". & < [ ] ] } | 1 | 2 ] 3 4 < . & ",
". 5 $ 6 7 8 9 0 a 0 b 2 7 c d . & ",
"& e f ] g h i j k j l m n ] o + e ",
"+ & p > q r s t u t s r v > w + & ",
"+ & x ] y m z A k A B m C ] D + E ",
"5 5 $ F 7 8 9 G H I b J 7 K L 5 5 ",
"E M N O ] 7 P Q 1 R P ] ] S T E M ",
"M & 5 U V 7 ] W X Y ] ] Z ` & M & ",
"M E M + ~  ...+.@.#.$.%.~ &.E M E ",
"e e e e e *.=.-.;.-.>.*.e e e e e ",
"M 5 M 5 M M 5 M M M M 5 M M 5 M 5 "};
