/* XPM */
static char * close_inactive_xpm[] = {
"17 15 23 1",
" 	c None",
".	c #E4E4E4",
"+	c #E3E3E3",
"@	c #E0E0E0",
"#	c #DDDDDD",
"$	c #D3D3D3",
"%	c #C7C7C7",
"&	c #BFBFBF",
"*	c #BDBDBD",
"=	c #C6C6C6",
"-	c #D4D4D4",
";	c #DFDFDF",
">	c #CDCDCD",
",	c #C0C0C0",
"'	c #C9C9C9",
")	c #CACACA",
"!	c #C1C1C1",
"~	c #CECECE",
"{	c #D2D2D2",
"]	c #C8C8C8",
"^	c #D9D9D9",
"/	c #BEBEBE",
"(	c #D5D5D5",
".................",
".....+@###@+.....",
"....@$%&*&=-@....",
"...;>,=')'=!~;...",
"..+{!]]]]]]]!{+..",
"..#==]]]]]]]==#..",
"..^,']]]]]]]',^..",
"..^/)]]]]]]])/^..",
"..^,']]]]]]]',^..",
"..#==]]]]]]]==#..",
"..+{,]]]]]]]!{+..",
"...;>,=')'=!~;...",
"....@$%&*&%(@....",
".....+@###@+.....",
"................."};
